HIERARCHY
ROOT root
{
	OFFSET 0.00 0.00 0.00
	CHANNELS 6 Xposition Yposition Zposition Zrotation Xrotation Yrotation
	JOINT lowerback
	{
		OFFSET 0 0 0
		CHANNELS 6 Xposition Yposition Zposition Zrotation Xrotation Yrotation
		JOINT upperback
		{
			OFFSET -0.214371 12.3768 -1.12219
			CHANNELS 6 Xposition Yposition Zposition Zrotation Xrotation Yrotation
			JOINT thorax
			{
				OFFSET -0.00137213 12.3873 0.296195
				CHANNELS 6 Xposition Yposition Zposition Zrotation Xrotation Yrotation
				JOINT lowerneck
				{
					OFFSET 0.0883157 12.5016 0.82912
					CHANNELS 6 Xposition Yposition Zposition Zrotation Xrotation Yrotation
					JOINT upperneck
					{
						OFFSET -1 10.1794 0.943522
						CHANNELS 6 Xposition Yposition Zposition Zrotation Xrotation Yrotation
						JOINT head
						{
							OFFSET 0.667525 10.2797 -1.57149
							CHANNELS 6 Xposition Yposition Zposition Zrotation Xrotation Yrotation
							End Site
							{
								OFFSET 0 0 0
							}
						}
					}
				}
				JOINT lclavicle
				{
					OFFSET 0.0883157 12.5016 0.82912
					CHANNELS 6 Xposition Yposition Zposition Zrotation Xrotation Yrotation
					JOINT lhumerus
					{
						OFFSET 20.61 4.45006 1.43784
						CHANNELS 6 Xposition Yposition Zposition Zrotation Xrotation Yrotation
						JOINT lradius
						{
							OFFSET 0 -30.3438 0
							CHANNELS 6 Xposition Yposition Zposition Zrotation Xrotation Yrotation
							JOINT lwrist
							{
								OFFSET 0 -18.964 0
								CHANNELS 6 Xposition Yposition Zposition Zrotation Xrotation Yrotation
								JOINT lhand
								{
									OFFSET 0 -9.48199 0
									CHANNELS 6 Xposition Yposition Zposition Zrotation Xrotation Yrotation
									JOINT lfingers
									{
										OFFSET 0 -3.17138 0
										CHANNELS 6 Xposition Yposition Zposition Zrotation Xrotation Yrotation
										End Site
										{
											OFFSET 0 -2.55685 0
										}
									}
								}
								JOINT lthumb
								{
									OFFSET 0 -9.48199 0
									CHANNELS 6 Xposition Yposition Zposition Zrotation Xrotation Yrotation
									End Site
									{
										OFFSET 0 -3.67114 0
									}
								}
							}
						}
					}
				}
				JOINT rclavicle
				{
					OFFSET 0.0883157 12.5016 0.82912
					CHANNELS 6 Xposition Yposition Zposition Zrotation Xrotation Yrotation
					JOINT rhumerus
					{
						OFFSET -20.61 4.45 1.44
						CHANNELS 6 Xposition Yposition Zposition Zrotation Xrotation Yrotation
						JOINT rradius
						{
							OFFSET 0 -29.5102 0
							CHANNELS 6 Xposition Yposition Zposition Zrotation Xrotation Yrotation
							JOINT rwrist
							{
								OFFSET 0 -19.2342 0
								CHANNELS 6 Xposition Yposition Zposition Zrotation Xrotation Yrotation
								JOINT rhand
								{
									OFFSET 0 -9.61712 0
									CHANNELS 6 Xposition Yposition Zposition Zrotation Xrotation Yrotation
									JOINT rfingers
									{
										OFFSET 0 -3.29215 0
										CHANNELS 6 Xposition Yposition Zposition Zrotation Xrotation Yrotation
										End Site
										{
											OFFSET 0 -2.557 0
										}
									}
								}
								JOINT rthumb
								{
									OFFSET 0 -9.61712 0
									CHANNELS 6 Xposition Yposition Zposition Zrotation Xrotation Yrotation
									End Site
									{
										OFFSET 0 -3.671 0
									}
								}
							}
						}
					}
				}
			}
		}
	}
	JOINT rfemur
	{
		OFFSET -8.46272 -9.62775 4.76248
		CHANNELS 6 Xposition Yposition Zposition Zrotation Xrotation Yrotation
		JOINT rtibia
		{
			OFFSET 1.00552e-005 -38.0331 0
			CHANNELS 6 Xposition Yposition Zposition Zrotation Xrotation Yrotation
			JOINT rfoot
			{
				OFFSET 1.14428e-005 -43.2815 0
				CHANNELS 6 Xposition Yposition Zposition Zrotation Xrotation Yrotation
				JOINT rtoes
				{
					OFFSET 0 -14.1868 -3.08763
					CHANNELS 6 Xposition Yposition Zposition Zrotation Xrotation Yrotation
					End Site
					{
						OFFSET 0 -7.27332 0
					}
				}
			}
		}
	}
	JOINT lfemur
	{
		OFFSET 9.10607 -9.62778 4.76249
		CHANNELS 6 Xposition Yposition Zposition Zrotation Xrotation Yrotation
		JOINT ltibia
		{
			OFFSET -1.01399e-005 -38.3535 0
			CHANNELS 6 Xposition Yposition Zposition Zrotation Xrotation Yrotation
			JOINT lfoot
			{
				OFFSET -1.12937e-005 -42.7176 0
				CHANNELS 6 Xposition Yposition Zposition Zrotation Xrotation Yrotation
				JOINT ltoes
				{
					OFFSET 0 -13.9965 -2.83857
					CHANNELS 6 Xposition Yposition Zposition Zrotation Xrotation Yrotation
					End Site
					{
						OFFSET 0 -7.16348 0
					}
				}
			}
		}
	}
}
MOTION
Frames: 9
Frame Time: 0.00833333
1.11841	93.5826	130.66	-3.15703	-2.33284	-8.1666	0 0 0 4.77616	8.80173	1.2226	-0.214371 12.3768 -1.12219 0.129499	-3.39643	2.06656	-0.00137213 12.3873 0.296195 -2.9988	-0.57418	0.835745	0.0883157 12.5016 0.82912 4.21656	-7.09578	0.887154	-1 10.1794 0.943522 -4.90571	6.64562	1.21726	0.667525 10.2797 -1.57149 0.399867	2.02137	0.23266	0.0883157 12.5016 0.82912 -15	0	-0	20.61 4.45006 1.43784 8.63464	17.2178	-148.428	0 -30.3438 0 -0	14.4682	-0	0 -18.964 0 1.3555e-014	-2.54666e-015	-111.281	0 -9.48199 0 1.22245	4.37968	-2.58917e-014	0 -3.17138 0 -0	7.12502	-0	0 -9.48199 0 25	15	-1.36605e-015	0.0883157 12.5016 0.82912 15	0	-0	-20.61 4.45 1.44 -20.6812	-16.4973	-168.286	0 -29.5102 0 -0	70.6272	-0	0 -19.2342 0 1.12462e-016	-1.25123e-015	100.272	0 -9.61712 0 1.22	4.38	-0	0 -3.29215 0 -0	7.12502	-0	0 -9.61712 0 25	15	-7.97034e-015	-8.46272 -9.62775 4.76248 3.75444	27.2224	6.89048	1.00552e-005 -38.0331 0 -0	16.7478	-0	1.14428e-005 -43.2815 0 -1.08831e-016	-64.2355	-1.21063e-016	0 -14.1868 -3.08763 -0	-50.71	-0	9.10607 -9.62778 4.76249 0.72089	-34.3363	-4.93939	-1.01399e-005 -38.3535 0 -0	36.3749	-0	-1.12937e-005 -42.7176 0 5.19329e-015	-68.6479	5.94323e-015	0 -13.9965 -2.83857 -0	-40.7247	-0
1.15327	93.4837	132.217	-2.70379	-2.31489	-7.8691	0 0 0 4.35833	8.66616	1.25643	-0.214371 12.3768 -1.12219 -0.0518224	-3.42161	2.05908	-0.00137213 12.3873 0.296195 -2.95034	-0.547736	0.842354	0.0883157 12.5016 0.82912 4.25075	-7.0685	0.863521	-1 10.1794 0.943522 -4.94207	6.89239	1.17821	0.667525 10.2797 -1.57149 0.415395	1.87154	0.183581	0.0883157 12.5016 0.82912 -15	0	-0	20.61 4.45006 1.43784 8.67916	16.9587	-148.236	0 -30.3438 0 -0	14.3509	-0	0 -18.964 0 1.35347e-014	-2.59816e-015	-111.733	0 -9.48199 0 1.22245	4.37968	-2.58917e-014	0 -3.17138 0 -0	7.12502	-0	0 -9.48199 0 25	15	-1.36605e-015	0.0883157 12.5016 0.82912 15	0	-0	-20.61 4.45 1.44 -20.5046	-15.5488	-168.618	0 -29.5102 0 -0	70.411	-0	0 -19.2342 0 1.12374e-016	-1.25075e-015	100.268	0 -9.61712 0 1.22	4.38	-0	0 -3.29215 0 -0	7.12502	-0	0 -9.61712 0 25	15	-7.97034e-015	-8.46272 -9.62775 4.76248 3.31777	25.9775	7.08383	1.00552e-005 -38.0331 0 -0	20.5232	-0	1.14428e-005 -43.2815 0 -9.92122e-017	-62.1053	-1.12478e-016	0 -14.1868 -3.08763 -0	-51.519	-0	9.10607 -9.62778 4.76249 -0.0896906	-34.3894	-4.7058	-1.01399e-005 -38.3535 0 -0	38.1807	-0	-1.12937e-005 -42.7176 0 5.03414e-015	-68.075	5.7953e-015	0 -13.9965 -2.83857 -0	-39.9405	-0
1.18106	93.3889	133.738	-2.2352	-2.30202	-7.56909	0 0 0 3.92809	8.55423	1.28787	-0.214371 12.3768 -1.12219 -0.233426	-3.44353	2.04886	-0.00137213 12.3873 0.296195 -2.8952	-0.524424	0.84607	0.0883157 12.5016 0.82912 4.28448	-7.0324	0.840212	-1 10.1794 0.943522 -4.98499	7.17433	1.14852	0.667525 10.2797 -1.57149 0.438826	1.67952	0.149119	0.0883157 12.5016 0.82912 -15	0	-0	20.61 4.45006 1.43784 8.73496	16.6751	-148.224	0 -30.3438 0 -0	14.3117	-0	0 -18.964 0 1.35148e-014	-2.64746e-015	-112.167	0 -9.48199 0 1.22245	4.37968	-2.58917e-014	0 -3.17138 0 -0	7.12502	-0	0 -9.48199 0 25	15	-1.36605e-015	0.0883157 12.5016 0.82912 15	0	-0	-20.61 4.45 1.44 -20.2923	-14.5598	-168.924	0 -29.5102 0 -0	70.093	-0	0 -19.2342 0 1.11895e-016	-1.2481e-015	100.246	0 -9.61712 0 1.22	4.38	-0	0 -3.29215 0 -0	7.12502	-0	0 -9.61712 0 25	15	-7.97034e-015	-8.46272 -9.62775 4.76248 2.89622	24.5177	7.26462	1.00552e-005 -38.0331 0 -0	24.576	-0	1.14428e-005 -43.2815 0 -9.01076e-017	-59.7696	-1.04518e-016	0 -14.1868 -3.08763 -0	-52.2785	-0	9.10607 -9.62778 4.76249 -0.927784	-34.3882	-4.51004	-1.01399e-005 -38.3535 0 -0	39.9939	-0	-1.12937e-005 -42.7176 0 4.92905e-015	-67.6804	5.69794e-015	0 -13.9965 -2.83857 -0	-39.1043	-0
1.20746	93.3161	135.233	-1.76756	-2.29791	-7.31027	0 0 0 3.49414	8.47525	1.31576	-0.214371 12.3768 -1.12219 -0.406523	-3.46101	2.0355	-0.00137213 12.3873 0.296195 -2.82929	-0.504005	0.846603	0.0883157 12.5016 0.82912 4.3178	-6.98369	0.817946	-1 10.1794 0.943522 -5.03201	7.34932	1.12478	0.667525 10.2797 -1.57149 0.461229	1.47419	0.130062	0.0883157 12.5016 0.82912 -15	0	-0	20.61 4.45006 1.43784 8.80432	16.3685	-148.35	0 -30.3438 0 -0	14.3757	-0	0 -18.964 0 1.35054e-014	-2.67035e-015	-112.369	0 -9.48199 0 1.22245	4.37968	-2.58917e-014	0 -3.17138 0 -0	7.12502	-0	0 -9.48199 0 25	15	-1.36605e-015	0.0883157 12.5016 0.82912 15	0	-0	-20.61 4.45 1.44 -20.0498	-13.5957	-169.167	0 -29.5102 0 -0	69.6276	-0	0 -19.2342 0 1.10808e-016	-1.24207e-015	100.196	0 -9.61712 0 1.22	4.38	-0	0 -3.29215 0 -0	7.12502	-0	0 -9.61712 0 25	15	-7.97034e-015	-8.46272 -9.62775 4.76248 2.48833	22.9199	7.44226	1.00552e-005 -38.0331 0 -0	28.6971	-0	1.14428e-005 -43.2815 0 -8.20747e-017	-57.3962	-9.76617e-017	0 -14.1868 -3.08763 -0	-53.0223	-0	9.10607 -9.62778 4.76249 -1.7515	-34.2818	-4.3474	-1.01399e-005 -38.3535 0 -0	41.6648	-0	-1.12937e-005 -42.7176 0 4.88867e-015	-67.5252	5.66061e-015	0 -13.9965 -2.83857 -0	-38.2831	-0
1.23868	93.2835	136.712	-1.31712	-2.30627	-7.13633	0 0 0 3.06519	8.43853	1.33894	-0.214371 12.3768 -1.12219 -0.562322	-3.47281	2.01863	-0.00137213 12.3873 0.296195 -2.74853	-0.486237	0.843663	0.0883157 12.5016 0.82912 4.32983	-6.92119	0.797541	-1 10.1794 0.943522 -5.0784	7.3594	1.10131	0.667525 10.2797 -1.57149 0.473761	1.28439	0.127194	0.0883157 12.5016 0.82912 -15	0	-0	20.61 4.45006 1.43784 8.89005	16.0399	-148.569	0 -30.3438 0 -0	14.5683	-0	0 -18.964 0 1.35169e-014	-2.64235e-015	-112.122	0 -9.48199 0 1.22245	4.37968	-2.58917e-014	0 -3.17138 0 -0	7.12502	-0	0 -9.48199 0 25	15	-1.36605e-015	0.0883157 12.5016 0.82912 15	0	-0	-20.61 4.45 1.44 -19.7853	-12.7226	-169.313	0 -29.5102 0 -0	68.9694	-0	0 -19.2342 0 1.08909e-016	-1.23146e-015	100.108	0 -9.61712 0 1.22	4.38	-0	0 -3.29215 0 -0	7.12502	-0	0 -9.61712 0 25	15	-7.97034e-015	-8.46272 -9.62775 4.76248 2.09249	21.2611	7.62543	1.00552e-005 -38.0331 0 -0	32.677	-0	1.14428e-005 -43.2815 0 -7.53836e-017	-55.1526	-9.20955e-017	0 -14.1868 -3.08763 -0	-53.7842	-0	9.10607 -9.62778 4.76249 -2.51933	-34.019	-4.21343	-1.01399e-005 -38.3535 0 -0	43.0438	-0	-1.12937e-005 -42.7176 0 4.92661e-015	-67.6711	5.69568e-015	0 -13.9965 -2.83857 -0	-37.5441	-0
1.27561	93.2947	138.18	-0.875222	-2.33304	-7.0635	0 0 0 2.62879	8.45763	1.36043	-0.214371 12.3768 -1.12219 -0.701973	-3.47601	2.00184	-0.00137213 12.3873 0.296195 -2.64851	-0.470999	0.837233	0.0883157 12.5016 0.82912 4.33938	-6.8459	0.779738	-1 10.1794 0.943522 -5.1166	7.21411	1.07175	0.667525 10.2797 -1.57149 0.476595	1.09763	0.145438	0.0883157 12.5016 0.82912 -15	0	-0	20.61 4.45006 1.43784 8.99181	15.6892	-148.873	0 -30.3438 0 -0	14.8976	-0	0 -18.964 0 1.35561e-014	-2.54369e-015	-111.255	0 -9.48199 0 1.22245	4.37968	-2.58917e-014	0 -3.17138 0 -0	7.12502	-0	0 -9.48199 0 25	15	-1.36605e-015	0.0883157 12.5016 0.82912 15	0	-0	-20.61 4.45 1.44 -19.5059	-11.9414	-169.336	0 -29.5102 0 -0	68.1108	-0	0 -19.2342 0 1.05702e-016	-1.21334e-015	99.9577	0 -9.61712 0 1.22	4.38	-0	0 -3.29215 0 -0	7.12502	-0	0 -9.61712 0 25	15	-7.97034e-015	-8.46272 -9.62775 4.76248 1.69478	19.5084	7.83732	1.00552e-005 -38.0331 0 -0	36.6	-0	1.14428e-005 -43.2815 0 -6.92613e-017	-52.8519	-8.71414e-017	0 -14.1868 -3.08763 -0	-54.6372	-0	9.10607 -9.62778 4.76249 -3.24	-33.5873	-4.12041	-1.01399e-005 -38.3535 0 -0	44.1326	-0	-1.12937e-005 -42.7176 0 5.07405e-015	-68.2214	5.83234e-015	0 -13.9965 -2.83857 -0	-36.8836	-0
1.31514	93.3406	139.631	-0.430989	-2.3758	-7.06264	0 0 0 2.17905	8.52633	1.381	-0.214371 12.3768 -1.12219 -0.831331	-3.4714	1.98537	-0.00137213 12.3873 0.296195 -2.53193	-0.458451	0.827506	0.0883157 12.5016 0.82912 4.34518	-6.7614	0.764944	-1 10.1794 0.943522 -5.14449	6.99728	1.0341	0.667525 10.2797 -1.57149 0.475949	0.89465	0.184265	0.0883157 12.5016 0.82912 -15	0	-0	20.61 4.45006 1.43784 9.10422	15.3128	-149.282	0 -30.3438 0 -0	15.3497	-0	0 -18.964 0 1.36136e-014	-2.39065e-015	-109.92	0 -9.48199 0 1.22245	4.37968	-2.58917e-014	0 -3.17138 0 -0	7.12502	-0	0 -9.48199 0 25	15	-1.36605e-015	0.0883157 12.5016 0.82912 15	0	-0	-20.61 4.45 1.44 -19.2125	-11.2095	-169.262	0 -29.5102 0 -0	67.0819	-0	0 -19.2342 0 1.01345e-016	-1.18825e-015	99.7498	0 -9.61712 0 1.22	4.38	-0	0 -3.29215 0 -0	7.12502	-0	0 -9.61712 0 25	15	-7.97034e-015	-8.46272 -9.62775 4.76248 1.30077	17.6112	8.07402	1.00552e-005 -38.0331 0 -0	40.6056	-0	1.14428e-005 -43.2815 0 -6.33733e-017	-50.3825	-8.25248e-017	0 -14.1868 -3.08763 -0	-55.5585	-0	9.10607 -9.62778 4.76249 -3.94146	-33.021	-4.07172	-1.01399e-005 -38.3535 0 -0	45.0307	-0	-1.12937e-005 -42.7176 0 5.33527e-015	-69.1354	6.07569e-015	0 -13.9965 -2.83857 -0	-36.257	-0
1.3575	93.4195	141.06	0.00261979	-2.42566	-7.10942	0 0 0 1.73452	8.62431	1.39616	-0.214371 12.3768 -1.12219 -0.948659	-3.4634	1.96386	-0.00137213 12.3873 0.296195 -2.40543	-0.448775	0.814509	0.0883157 12.5016 0.82912 4.34966	-6.67259	0.753064	-1 10.1794 0.943522 -5.15665	6.72862	0.9889	0.667525 10.2797 -1.57149 0.471973	0.69423	0.236282	0.0883157 12.5016 0.82912 -15	0	-0	20.61 4.45006 1.43784 9.2226	14.9073	-149.798	0 -30.3438 0 -0	15.9165	-0	0 -18.964 0 1.36751e-014	-2.21366e-015	-108.39	0 -9.48199 0 1.22245	4.37968	-2.58917e-014	0 -3.17138 0 -0	7.12502	-0	0 -9.48199 0 25	15	-1.36605e-015	0.0883157 12.5016 0.82912 15	0	-0	-20.61 4.45 1.44 -18.9057	-10.5274	-169.133	0 -29.5102 0 -0	65.8944	-0	0 -19.2342 0 9.67197e-017	-1.16101e-015	99.5242	0 -9.61712 0 1.22	4.38	-0	0 -3.29215 0 -0	7.12502	-0	0 -9.61712 0 25	15	-7.97034e-015	-8.46272 -9.62775 4.76248 0.934234	15.6195	8.30378	1.00552e-005 -38.0331 0 -0	44.5675	-0	1.14428e-005 -43.2815 0 -5.82967e-017	-48.0245	-7.86808e-017	0 -14.1868 -3.08763 -0	-56.4391	-0	9.10607 -9.62778 4.76249 -4.61113	-32.339	-4.04972	-1.01399e-005 -38.3535 0 -0	45.736	-0	-1.12937e-005 -42.7176 0 5.68753e-015	-70.2576	6.40608e-015	0 -13.9965 -2.83857 -0	-35.6695	-0
1.40267	93.5296	142.46	0.412695	-2.47375	-7.17951	0 0 0 1.3138	8.73127	1.4014	-0.214371 12.3768 -1.12219 -1.05222	-3.45644	1.9319	-0.00137213 12.3873 0.296195 -2.27564	-0.442155	0.798266	0.0883157 12.5016 0.82912 4.35091	-6.58468	0.743427	-1 10.1794 0.943522 -5.15208	6.42453	0.945997	0.667525 10.2797 -1.57149 0.464654	0.515128	0.294098	0.0883157 12.5016 0.82912 -15	0	-0	20.61 4.45006 1.43784 9.3418	14.469	-150.42	0 -30.3438 0 -0	16.5899	-0	0 -18.964 0 1.3729e-014	-2.04423e-015	-106.938	0 -9.48199 0 1.22245	4.37968	-2.58917e-014	0 -3.17138 0 -0	7.12502	-0	0 -9.48199 0 25	15	-1.36605e-015	0.0883157 12.5016 0.82912 15	0	-0	-20.61 4.45 1.44 -18.5835	-9.89499	-168.991	0 -29.5102 0 -0	64.5599	-0	0 -19.2342 0 9.26278e-017	-1.13636e-015	99.3201	0 -9.61712 0 1.22	4.38	-0	0 -3.29215 0 -0	7.12502	-0	0 -9.61712 0 25	15	-7.97034e-015	-8.46272 -9.62775 4.76248 0.613512	13.5825	8.49569	1.00552e-005 -38.0331 0 -0	48.3595	-0	1.14428e-005 -43.2815 0 -5.44064e-017	-46.0583	-7.58333e-017	0 -14.1868 -3.08763 -0	-57.1697	-0	9.10607 -9.62778 4.76249 -5.23689	-31.5603	-4.03701	-1.01399e-005 -38.3535 0 -0	46.2461	-0	-1.12937e-005 -42.7176 0 6.10012e-015	-71.4327	6.79584e-015	0 -13.9965 -2.83857 -0	-35.1264	-0
